<?xml version="1.0" encoding="UTF-8"?>
<svg xmlns="http://www.w3.org/2000/svg" xmlns:xlink="http://www.w3.org/1999/xlink" width="32px" height="32px" viewBox="0 0 32 32" version="1.1">
<defs>
<linearGradient id="linear0" gradientUnits="userSpaceOnUse" x1="7.534" y1="7.534" x2="27.557" y2="27.557" gradientTransform="matrix(0.666667,0,0,0.666667,0,0)">
<stop offset="0" style="stop-color:rgb(95.686275%,30.980392%,35.294118%);stop-opacity:1;"/>
<stop offset="0.443" style="stop-color:rgb(93.333333%,23.921569%,29.019608%);stop-opacity:1;"/>
<stop offset="1" style="stop-color:rgb(89.803922%,12.54902%,18.823529%);stop-opacity:1;"/>
</linearGradient>
<linearGradient id="linear1" gradientUnits="userSpaceOnUse" x1="27.373" y1="27.373" x2="40.507" y2="40.507" gradientTransform="matrix(0.666667,0,0,0.666667,0,0)">
<stop offset="0" style="stop-color:rgb(65.882353%,7.843137%,18.039216%);stop-opacity:1;"/>
<stop offset="0.179" style="stop-color:rgb(72.941176%,8.627451%,19.607843%);stop-opacity:1;"/>
<stop offset="0.243" style="stop-color:rgb(76.078431%,9.019608%,20.392157%);stop-opacity:1;"/>
</linearGradient>
</defs>
<g id="surface1">
<path style=" stroke:none;fill-rule:nonzero;fill:url(#linear0);" d="M 28.28125 8.265625 C 28.796875 7.75 28.796875 6.914062 28.28125 6.398438 L 25.601562 3.71875 C 25.085938 3.203125 24.25 3.203125 23.734375 3.71875 L 16 11.453125 L 8.265625 3.71875 C 7.75 3.203125 6.914062 3.203125 6.398438 3.71875 L 3.71875 6.398438 C 3.203125 6.914062 3.203125 7.75 3.71875 8.265625 L 11.453125 16 L 3.71875 23.734375 C 3.203125 24.25 3.203125 25.085938 3.71875 25.601562 L 6.398438 28.28125 C 6.914062 28.796875 7.75 28.796875 8.265625 28.28125 Z M 28.28125 8.265625 "/>
<path style=" stroke:none;fill-rule:nonzero;fill:url(#linear1);" d="M 16 20.546875 L 23.734375 28.28125 C 24.25 28.796875 25.085938 28.796875 25.601562 28.28125 L 28.28125 25.601562 C 28.796875 25.085938 28.796875 24.25 28.28125 23.734375 L 20.546875 16 Z M 16 20.546875 "/>
</g>
</svg>
